{"title":"Jobs 2013 Cropped HDRip XviD AC3 UNiQUE","uid":8918405,"size":2428054753,"categoryP":"video","categoryS":"movies","magnet":"?xt=urn:btih:ce16a6baacecaa62ab0b93f6b6eedf58909b326f&amp;dn=Jobs+2013+Cropped+HDRip+XviD+AC3+UNiQUE&amp;tr=udp%3A%2F%2Ftracker.openbittorrent.com%3A80&amp;tr=udp%3A%2F%2Fopen.demonii.com%3A1337&amp;tr=udp%3A%2F%2Ftracker.coppersurfer.tk%3A6969&amp;tr=udp%3A%2F%2Fexodus.desync.com%3A6969","seeders":1,"leechers":1,"uploader":"xxxlavalxxx","files":-1,"time":1379197194,"description":" &lt;a href=&quot;\nhttp://www.imdb.com/title/tt2357129/&quot; rel=&quot;nofollow&quot; target=&quot;_NEW&quot;&gt;\nhttp://www.imdb.com/title/tt2357129/&lt;/a&gt;\n\n\n\n\nThe story of Steve Jobs' ascension from college dropout into one of the most revered creative entrepreneurs of the 20th century. \n\n\n\nDirector:\n Joshua Michael Stern \n\nWriter:\n Matt Whiteley \n\nStars:\n Ashton Kutcher, Dermot Mulroney, Josh Gad \n\nGenres:\n  Biography |  Drama \n\nCountry:\n USA \n\nLanguage:\n English \n\n\n\n\nSource JYK THX\n\n Note:\n\n went ahead and did cropped version for people who hate subs.. have an uncropped version coming next.\n\n General:\n\n Format                                   : AVI\n Format/Info                              : Audio Video Interleave\n File size                                : 2.26 GiB\n Duration                                 : 2h 7mn\n Overall bit rate                         : 2 538 Kbps\n\n Video:\n\n ID                                       : 0\n Format                                   : MPEG-4 Visual\n Codec ID                                 : XVID\n Codec ID/Hint                            : XviD\n Duration                                 : 2h 7mn\n Source duration                          : 54mn 1s\n Bit rate                                 : 1 036 Kbps\n Width                                    : 704 pixels\n Height                                   : 256 pixels\n Display aspect ratio                     : 2.750\n Frame rate                               : 29.970 fps\n Color space                              : YUV\n Chroma subsampling                       : 4:2:0\n Compression mode                         : Lossy\n Bits/(Pixel*Frame)                       : 0.192\n Stream size                              : 945 MiB (41%)\n\n Audio:\n\n ID                                       : 1\n Format                                   : AC-3\n Format/Info                              : Audio Coding 3\n Codec ID                                 : 2000\n Duration                                 : 2h 7mn\n Source duration                          : 54mn 1s\n Bit rate mode                            : Constant\n Bit rate                                 : 192 Kbps\n Channel(s)                               : 2 channels\n Sampling rate                            : 48.0 KHz\n Compression mode                         : Lossy\n Stream size                              : 74.2 MiB (3%)\n Alignment                                : Aligned on interleaves\n Interleave, duration                     : 64 ms (1.92 video frames)\n\n\n &lt;a href=&quot;\nhttp://bayimg.com/PapABAaej&quot; rel=&quot;nofollow&quot; target=&quot;_NEW&quot;&gt;\nhttp://bayimg.com/PapABAaej&lt;/a&gt; &lt;a href=&quot;\nhttp://bayimg.com/papAcAaeJ&quot; rel=&quot;nofollow&quot; target=&quot;_NEW&quot;&gt;\nhttp://bayimg.com/papAcAaeJ&lt;/a&gt;","torrent":{"xt":"urn:btih:ce16a6baacecaa62ab0b93f6b6eedf58909b326f","amp;dn":"Jobs+2013+Cropped+HDRip+XviD+AC3+UNiQUE","amp;tr":["udp%3A%2F%2Ftracker.openbittorrent.com%3A80","udp%3A%2F%2Fopen.demonii.com%3A1337","udp%3A%2F%2Ftracker.coppersurfer.tk%3A6969","udp%3A%2F%2Fexodus.desync.com%3A6969"],"infoHash":"ce16a6baacecaa62ab0b93f6b6eedf58909b326f","infoHashBuffer":{"type":"Buffer","data":[206,22,166,186,172,236,170,98,171,11,147,246,182,238,223,88,144,155,50,111]},"announce":[],"urlList":[]}}